<svg width="15" height="17" viewBox="0 0 15 17" fill="none" xmlns="http://www.w3.org/2000/svg" class="the-header-cart-link__icon" data-v-af3bbb74=""><path fill-rule="evenodd" clip-rule="evenodd" d="M12.874 15.565H1.662V6.418h1.246v1.243c0 .397.372.718.831.718.459 0 .83-.321.83-.718V6.418H9.97v1.243c0 .397.372.718.83.718.46 0 .832-.321.832-.718V6.418h1.246l-.004 9.147zM4.568 4.655c0-1.302 1.246-2.362 2.656-2.362h.089c1.41 0 2.656 1.06 2.656 2.363v.327h-5.4v-.327zm9.728.552a.914.914 0 00-.588-.224h-2.077v-.327c0-2.094-1.99-3.798-4.317-3.798h-.089C4.9.858 2.908 2.562 2.908 4.656v.327H.83c-.459 0-.831.35-.831.746v10.554c0 .396.372.717.83.717h12.874c.459 0 .83-.321.831-.717l.004-10.561c0-.19-.087-.38-.243-.515z" fill="#151515"></path></svg>