<svg width="68" height="117" viewBox="0 0 68 117" fill="none" xmlns="http://www.w3.org/2000/svg" data-v-4236001c=""><path opacity=".9" d="M67.193.81H.797v96.758h66.396V.81z" fill="#FDC94C"></path><path fill-rule="evenodd" clip-rule="evenodd" d="M3.431 116.489H2.244L0 107.598h1.213l1.044 4.515c.273 1.151.487 2.178.649 3.08.09-.599.33-1.632.713-3.093l1.175-4.502h1.219l1.07 4.528c.312 1.316.52 2.336.61 3.054.117-.619.35-1.646.707-3.08l1.161-4.502h1.161l-2.465 8.891H7.07l-1.109-4.607c-.279-1.171-.467-2.139-.57-2.909-.16.982-.377 1.953-.65 2.909l-1.31 4.607zm11.955-9.075a3.606 3.606 0 011.583.298c.5.217.945.545 1.304.959a5.608 5.608 0 011.076 3.373 5.605 5.605 0 01-1.154 3.346 3.888 3.888 0 01-1.332.938 3.827 3.827 0 01-1.594.306 3.606 3.606 0 01-2.847-1.257 4.79 4.79 0 01-1.103-3.291 4.958 4.958 0 011.142-3.396 3.754 3.754 0 011.317-.99 3.7 3.7 0 011.608-.326v.04zm-.039.941a2.353 2.353 0 00-1.18.262 2.395 2.395 0 00-.902.817 4.497 4.497 0 00-.746 2.633 4.266 4.266 0 00.765 2.566c.238.327.548.592.905.775a2.525 2.525 0 003.208-.775 4.875 4.875 0 000-5.199 2.385 2.385 0 00-.894-.818 2.355 2.355 0 00-1.175-.268l.02.007zm9.023-.941a3.61 3.61 0 011.58.313c.496.222.938.553 1.294.97a5.61 5.61 0 011.076 3.373 5.608 5.608 0 01-1.154 3.347 3.903 3.903 0 01-1.332.938 3.842 3.842 0 01-1.594.305 3.59 3.59 0 01-1.555-.308 3.641 3.641 0 01-1.28-.949 4.788 4.788 0 01-1.102-3.29 4.954 4.954 0 011.142-3.396 3.758 3.758 0 011.317-.991 3.7 3.7 0 011.608-.326v.014zm-.039.941a2.353 2.353 0 00-1.18.262 2.396 2.396 0 00-.902.817 4.496 4.496 0 00-.746 2.633 4.267 4.267 0 00.765 2.566c.238.327.548.592.905.775a2.525 2.525 0 003.208-.775 4.875 4.875 0 000-5.199 2.386 2.386 0 00-.895-.818 2.356 2.356 0 00-1.174-.268l.019.007zm5.507 8.134v-8.759c.795-.135 1.6-.201 2.407-.198a5.051 5.051 0 013.56 1.112c.425.41.757.908.974 1.46.216.552.31 1.146.279 1.739a4.76 4.76 0 01-.297 1.87 4.7 4.7 0 01-1 1.598c-.857.856-2.16 1.284-3.893 1.284a17.433 17.433 0 01-2.03-.106zm1.129-7.897v7.048a8.31 8.31 0 001.148.053 3.334 3.334 0 002.765-.995 3.43 3.43 0 00.794-1.297 3.472 3.472 0 00.158-1.519 3.402 3.402 0 00-.889-2.527 3.65 3.65 0 00-1.247-.725 3.614 3.614 0 00-1.425-.183 6.347 6.347 0 00-1.298.118l-.006.027zm10.275 7.897v-8.891h4.735v.994H42.39v2.961h3.314v.955H42.39v3.981h-1.148zm9.885-2.803l.94 2.803h1.214l-3.004-8.917h-1.355l-2.997 8.917h1.174l.902-2.777 3.126-.026zm-2.88-.902l.856-2.58c.097-.283.247-.816.448-1.612.181.724.33 1.263.454 1.625l.875 2.567h-2.633zm7.395 3.705h-1.07v-8.891h1.251l2.802 4.515c.583.93 1.105 1.897 1.564 2.896h.039a44.481 44.481 0 01-.13-3.666v-3.732h1.07v8.878H60.02l-2.79-4.528a22.964 22.964 0 01-1.627-2.974h-.046c.059.901.085 2.125.085 3.679v3.823zm7.063-.434l.299-.968a3.663 3.663 0 002.024.58c.484.028.962-.119 1.349-.415a1.37 1.37 0 00.486-1.106c.01-.376-.128-.74-.382-1.013a3.675 3.675 0 00-1.298-.744c-1.53-.553-2.285-1.38-2.264-2.481a2.21 2.21 0 01.792-1.737 3.02 3.02 0 012.05-.659 3.757 3.757 0 011.946.435l-.312.941a3.067 3.067 0 00-1.66-.421 1.713 1.713 0 00-1.24.401 1.322 1.322 0 00-.407.958 1.33 1.33 0 00.408.957 4.44 4.44 0 001.349.737 4.396 4.396 0 011.615 1.021c.367.432.56.989.539 1.559.007.346-.06.689-.195 1.006-.135.316-.337.6-.59.83-.638.534-1.453.8-2.277.744a4.774 4.774 0 01-1.24-.191 3.294 3.294 0 01-.992-.408v-.026zM.798 0h67.2v98.384H0C.026 65.587.026 32.793 0 0h.798zm65.598 1.619H1.602v95.127h64.794V1.619z" fill="#000003"></path><path fill-rule="evenodd" clip-rule="evenodd" d="M58.645 86.999a.82.82 0 01-.205.619.798.798 0 01-.59.263.79.79 0 01-.588-.263.813.813 0 01-.206-.62l-.337-38.296H29.54l-12.37 39.06H9.873l13.194-39.83-13.045-36.744a.82.82 0 01.057-.591.802.802 0 01.44-.393c.191-.07.4-.063.586.018a.803.803 0 01.416.42l13.232 37.27-12.655 38.231h3.892l12.39-39.047h29.915c.125 13.303.242 26.604.35 39.903z" fill="#000003"></path></svg>